<mxfile host="app.diagrams.net" modified="2023-04-16T00:23:24.558Z" agent="Mozilla/5.0 (Macintosh; Intel Mac OS X 10_15_7) AppleWebKit/537.36 (KHTML, like Gecko) Chrome/112.0.0.0 Safari/537.36" version="21.1.8" etag="rdswSpZEvHK8QjD-bGWZ" type="github">
  <diagram name="Page-1" id="Tgncudhdu_LlgzXYa-KV">
    <mxGraphModel>
      <root>
        <mxCell id="0" />
        <mxCell id="1" parent="0" />
      </root>
    </mxGraphModel>
  </diagram>
</mxfile>
